<svg width="339" height="338" viewBox="0 0 339 338" fill="none" xmlns="http://www.w3.org/2000/svg">
<path d="M141 189C145.418 189 149 192.582 149 197V330C149 334.418 145.418 338 141 338H8C3.58172 338 0 334.418 0 330V197C0 192.582 3.58172 189 8 189H141ZM331 189C335.418 189 339 192.582 339 197V330C339 334.418 335.418 338 331 338H198C193.582 338 190 334.418 190 330V197C190 192.582 193.582 189 198 189H331ZM141 0C145.418 0 149 3.58172 149 8V141C149 145.418 145.418 149 141 149H8C3.58172 149 0 145.418 0 141V8C0 3.58172 3.58172 0 8 0H141Z" fill="#494949"/>
<rect x="95" y="94" width="149" height="149" rx="8" fill="#0DE883"/>
</svg>
